<?xml version="1.0" encoding="UTF-8" standalone="no"?>
<!-- Generator: Adobe Illustrator 24.1.0, SVG Export Plug-In . SVG Version: 6.00 Build 0)  -->

<svg
   xmlns:dc="http://purl.org/dc/elements/1.1/"
   xmlns:cc="http://creativecommons.org/ns#"
   xmlns:rdf="http://www.w3.org/1999/02/22-rdf-syntax-ns#"
   xmlns:svg="http://www.w3.org/2000/svg"
   xmlns="http://www.w3.org/2000/svg"
   xmlns:sodipodi="http://sodipodi.sourceforge.net/DTD/sodipodi-0.dtd"
   xmlns:inkscape="http://www.inkscape.org/namespaces/inkscape"
   version="1.1"
   id="Layer_1"
   x="0px"
   y="0px"
   viewBox="0 0 35.400002 26.5"
   xml:space="preserve"
   sodipodi:docname="contact.svg"
   inkscape:version="0.92.5 (2060ec1f9f, 2020-04-08)"
   width="35.400002"
   height="26.5"><metadata
   id="metadata15"><rdf:RDF><cc:Work
       rdf:about=""><dc:format>image/svg+xml</dc:format><dc:type
         rdf:resource="http://purl.org/dc/dcmitype/StillImage" /></cc:Work></rdf:RDF></metadata><defs
   id="defs13" /><sodipodi:namedview
   pagecolor="#ffffff"
   bordercolor="#666666"
   borderopacity="1"
   objecttolerance="10"
   gridtolerance="10"
   guidetolerance="10"
   inkscape:pageopacity="0"
   inkscape:pageshadow="2"
   inkscape:window-width="3378"
   inkscape:window-height="1376"
   id="namedview11"
   showgrid="false"
   inkscape:zoom="8.34386"
   inkscape:cx="38.973239"
   inkscape:cy="-27.311331"
   inkscape:window-x="1502"
   inkscape:window-y="632"
   inkscape:window-maximized="1"
   inkscape:current-layer="g8" />
<style
   type="text/css"
   id="style2">
	.st0{fill:#FFFFFF;stroke:#000000;stroke-width:2;stroke-miterlimit:10;}
</style>

<g
   id="g8"
   transform="translate(-13.4,-25.8)">
	<path
   d="M 45.5,25.8 H 16.7 c -1.8,0 -3.3,1.5 -3.3,3.5 v 19.5 c 0,1.9 1.5,3.5 3.3,3.5 h 28.8 c 1.8,0 3.3,-1.5 3.3,-3.5 V 29.2 C 48.7,27.3 47.3,25.8 45.5,25.8 Z M 47,48.7 c 0,0.9 -0.7,1.6 -1.5,1.6 H 16.7 c -0.8,0 -1.5,-0.7 -1.5,-1.6 V 29.2 c 0,-0.9 0.7,-1.6 1.5,-1.6 h 28.8 c 0.8,0 1.5,0.7 1.5,1.6 z M 45.5,29.5 c 0.4,0.4 0.4,1 0,1.3 0,0 0,0 0,0 l -7.8,8.2 7.5,8.1 c 0.3,0.4 0.3,1 0,1.3 -0.4,0.4 -0.9,0.4 -1.3,0 l -7.5,-8.1 -2.2,2.3 c -1.8,1.8 -4.6,1.8 -6.4,0 l -2.2,-2.3 -7.5,8.1 c -0.3,0.4 -0.9,0.4 -1.3,0 -0.4,-0.4 -0.4,-1 0,-1.3 L 24.3,39 16.5,30.9 c -0.4,-0.4 -0.4,-1 0,-1.3 0.4,-0.3 0.9,-0.4 1.3,0 L 29,41.4 c 1.1,1.1 2.8,1.1 3.8,0 L 44,29.6 c 0.6,-0.5 1.1,-0.5 1.5,-0.1 0,0 0,0 0,0 z"
   id="path6"
   inkscape:connector-curvature="0" />
</g>
</svg>